# xmcd
#
# Track frame offsets: 
#        150
#        19876
#        32150
#        44675
#        63811
#        99949
#        139233
#        166069
#        190386
#        203628
#        217082
#
# Disc length: 3143 seconds
#
# Revision: 5
# Processed by: cddbd v1.5.2PL0 Copyright (c) Steve Scherf et al.
# Submitted via: ExactAudioCopy v1.0b3
#
DISCID=9b0c450b
DTITLE=Eddy Louiss - O Toulouse...
DYEAR=2004
DGENRE=Jazz
TTITLE0=Toulouse 'Jazz'
TTITLE1=A bout de souffle (Blue Rondo à la turk)
TTITLE2=C'est ça la vie
TTITLE3=À tes seins (Saint Thomas)
TTITLE4=Dansez sur moi (Girl talk) - Mon disque d'été (For Lena and Le
TTITLE4=nnie) - Autour de minuit (Round 'bout midnignt)
TTITLE5=Un été (Estate) - Tu verras  (O que sera a floor da terra) - B
TTITLE5=idonville (Berimbau)
TTITLE6=À Claude
TTITLE7=Sing sing song (Work Song) - La pluie fait des claquettes - Ar
TTITLE7=mstrong (Let my people go)
TTITLE8=À Nadine
TTITLE9=Saute-mouton
TTITLE10=Toulouse 'Pomposo'
EXTD=YEAR: 2004
EXTT0=
EXTT1=
EXTT2=
EXTT3=
EXTT4=
EXTT5=
EXTT6=
EXTT7=
EXTT8=
EXTT9=
EXTT10=
PLAYORDER=
